<svg xmlns="http://www.w3.org/2000/svg" width="18" height="18" viewBox="0 0 18 18"><path fill="#fff" d="M16.872 6.955c0 3.29-2.664 5.953-5.952 5.953-1.176 0-2.26-.33-3.18-.92L3.26 16.49c-.258.257-.607.386-.938.386-.35 0-.68-.13-.937-.386-.514-.515-.514-1.36 0-1.874l4.5-4.482c-.587-.92-.918-2.003-.918-3.18 0-3.287 2.664-5.95 5.953-5.95 3.288 0 5.952 2.663 5.952 5.95zm-1.984 0c0-2.186-1.782-3.968-3.968-3.968-2.187 0-3.97 1.782-3.97 3.968 0 2.187 1.783 3.97 3.97 3.97 2.185 0 3.968-1.783 3.968-3.97z"/></svg>