<svg xmlns="http://www.w3.org/2000/svg" width="18" height="18" viewBox="0 0 18 18"><path fill="#DDD" d="M8.984 16.906c-4.385 0-7.953-3.567-7.953-7.953C1.03 4.568 4.6 1 8.985 1c4.386 0 7.953 3.568 7.953 7.953 0 4.386-3.567 7.953-7.953 7.953zM8.984 4C6.254 4 4.03 6.222 4.03 8.953c0 2.73 2.223 4.953 4.954 4.953 2.73 0 4.953-2.222 4.953-4.953 0-2.73-2.22-4.953-4.953-4.953z"/><path fill="#999" d="M1.03 8.953l.002.03h3l-.002-.03C4.03 6.223 6.253 4 8.984 4V1C4.6 1 1.03 4.568 1.03 8.953z"><animateTransform attributeName="transform" type="rotate" from="0 9 9" to="360 9 9" dur="1.5s" repeatCount="indefinite" /></path></svg>
